<svg width="36" height="36" viewBox="0 0 36 36" fill="none" xmlns="http://www.w3.org/2000/svg">
<path d="M32.9895 11.925C32.9871 11.8167 32.9725 11.709 32.946 11.604C32.9355 11.5665 32.9145 11.5305 32.901 11.493C32.8695 11.4075 32.841 11.3235 32.796 11.2455C32.772 11.205 32.739 11.172 32.7105 11.133C32.6625 11.0655 32.616 10.9965 32.5575 10.938C32.523 10.905 32.478 10.878 32.4405 10.8465C32.382 10.7985 32.328 10.746 32.2605 10.7055C32.2545 10.701 32.247 10.701 32.2395 10.6965L32.2275 10.6875L18.759 3.20247C18.5364 3.07906 18.2862 3.01418 18.0317 3.01392C17.7772 3.01365 17.5268 3.07802 17.304 3.20097L3.7725 10.686C3.768 10.6905 3.7635 10.6965 3.756 10.701L3.741 10.707C3.6885 10.737 3.6495 10.7805 3.6 10.8165C3.546 10.857 3.489 10.893 3.441 10.9395C3.396 10.986 3.3615 11.04 3.3225 11.0925C3.282 11.145 3.237 11.1915 3.204 11.2485C3.165 11.313 3.144 11.3865 3.1155 11.457C3.0945 11.5065 3.0675 11.553 3.054 11.607C3.02809 11.7101 3.01351 11.8157 3.0105 11.922C3.009 11.9475 3 11.97 3 11.997V24C3 24.5445 3.2955 25.047 3.7725 25.311L17.2395 32.7915L17.241 32.793L17.244 32.7945L17.274 32.811C17.3385 32.847 17.409 32.8665 17.4765 32.892C17.5245 32.9115 17.571 32.937 17.622 32.9505C17.8709 33.0147 18.1321 33.0147 18.381 32.9505C18.4305 32.937 18.477 32.9115 18.5265 32.892C18.594 32.8665 18.6645 32.8485 18.729 32.811L18.759 32.7945L18.762 32.793L18.7635 32.7915L32.2305 25.311C32.7045 25.047 33 24.5445 33 24V11.997C33 11.9715 32.991 11.9505 32.9895 11.925ZM17.958 17.808L7.587 12.0075L11.73 9.71547L21.981 15.573L17.958 17.808ZM18.03 6.22947L28.4115 12L25.0455 13.8705L14.8005 8.01596L18.03 6.22947ZM19.5 28.9515L19.503 20.433L24 17.916V22.5L27 21V16.2375L30 14.559V23.1165L19.5 28.9515Z" fill="#101828"/>
</svg>
